<?xml version="1.0" encoding="UTF-8"?>
<svg version="1.1" xmlns="http://www.w3.org/2000/svg" width="500" height="500">
<path d="M0 0 C26.73 0 53.46 0 81 0 C81.495 2.475 81.495 2.475 82 5 C80.89140625 5.12117188 79.7828125 5.24234375 78.640625 5.3671875 C77.17703766 5.53606296 75.71349843 5.70535572 74.25 5.875 C73.52039063 5.95363281 72.79078125 6.03226562 72.0390625 6.11328125 C67.26469881 6.67752423 63.80517585 7.26168251 60.3125 10.625 C56.40061077 17.7036567 57.77937874 27.92936834 57.68359375 35.78125 C57.66494263 37.03131836 57.6462915 38.28138672 57.6270752 39.56933594 C57.55907847 44.21282275 57.49873831 48.85641914 57.4375 53.5 C57.293125 63.895 57.14875 74.29 57 85 C88.35 85 119.7 85 152 85 C151.87625 74.996875 151.7525 64.99375 151.625 54.6875 C151.59100098 51.55080811 151.55700195 48.41411621 151.52197266 45.18237305 C151.48673275 42.66714461 151.45080779 40.15192564 151.4140625 37.63671875 C151.40270264 36.35430298 151.39134277 35.07188721 151.37963867 33.75061035 C151.4014893 20.3840661 151.4014893 20.3840661 147 8 C144.80277734 7.17405503 144.80277734 7.17405503 142.2109375 6.953125 C141.26992188 6.83066406 140.32890625 6.70820312 139.359375 6.58203125 C138.37453125 6.47246094 137.3896875 6.36289063 136.375 6.25 C135.38242188 6.12496094 134.38984375 5.99992187 133.3671875 5.87109375 C130.91298582 5.56431854 128.45796162 5.27472453 126 5 C126 3.35 126 1.7 126 0 C153.39 0 180.78 0 209 0 C209 1.65 209 3.3 209 5 C207.97519531 5.10957031 206.95039063 5.21914062 205.89453125 5.33203125 C204.53378133 5.49156745 203.17310806 5.6517584 201.8125 5.8125 C201.13896484 5.88275391 200.46542969 5.95300781 199.77148438 6.02539062 C195.51480689 6.54449764 192.35202231 7.27303486 189 10 C187.24185258 13.56834053 186.75587274 16.42744472 186.77636719 20.38183594 C186.77586365 21.43352966 186.77536011 22.48522339 186.77484131 23.56878662 C186.78574799 25.25950287 186.78574799 25.25950287 186.796875 26.984375 C186.78632487 29.38802625 186.77456816 31.79167245 186.76171875 34.1953125 C186.75141622 37.97192602 186.74998851 41.74783279 186.77001953 45.52441406 C186.78483403 49.17833813 186.76227055 52.83055992 186.734375 56.484375 C186.74974304 57.60342224 186.76511108 58.72246948 186.78094482 59.87542725 C186.68456704 67.69831287 184.76702592 71.91338624 180 78 C178.88903516 79.9669321 177.94727422 81.94757253 177 84 C176.34 84 175.68 84 175 84 C174.84724609 84.81210938 174.84724609 84.81210938 174.69140625 85.640625 C173.82242393 88.60596581 172.44527709 91.05524946 170.9375 93.75 C170.38964844 94.73484375 169.84179688 95.7196875 169.27734375 96.734375 C168.85582031 97.48203125 168.43429687 98.2296875 168 99 C167.34 99 166.68 99 166 99 C165.88519287 99.57073242 165.77038574 100.14146484 165.65209961 100.72949219 C164.43890115 104.95365755 161.85012874 108.52933318 159.5625 112.25 C159.05912109 113.09046875 158.55574219 113.9309375 158.03710938 114.796875 C157.55177734 115.5909375 157.06644531 116.385 156.56640625 117.203125 C156.12240479 117.93176758 155.67840332 118.66041016 155.22094727 119.41113281 C154.81803467 119.93545898 154.41512207 120.45978516 154 121 C153.34 121 152.68 121 152 121 C152 112.42 152 103.84 152 95 C120.65 95 89.3 95 57 95 C57.2165625 112.2940625 57.2165625 112.2940625 57.4375 129.9375 C57.48060303 133.56226318 57.52370605 137.18702637 57.56811523 140.92163086 C57.61142313 144.20399499 57.61142313 144.20399499 57.65589905 147.48634338 C57.67497331 148.93509414 57.69232891 150.38386821 57.70826721 151.83265686 C56.84685659 165.43864092 56.84685659 165.43864092 61.0625 177.4375 C67.64678605 180.93977981 74.6815538 181.43012099 82 182 C82 183.65 82 185.3 82 187 C54.61 187 27.22 187 -1 187 C-1 185.35 -1 183.7 -1 182 C-0.05898437 181.89042969 0.88203125 181.78085937 1.8515625 181.66796875 C3.09679687 181.50941406 4.34203125 181.35085938 5.625 181.1875 C6.85476562 181.03667969 8.08453125 180.88585937 9.3515625 180.73046875 C13.09230573 179.98151909 15.77520302 179.02850133 19 177 C23.58658365 169.42687083 22.14825753 158.52602954 22.14526367 150.01000977 C22.14826121 148.61605744 22.1516651 147.22210595 22.15544128 145.82815552 C22.164223 142.06573584 22.16661687 138.30333894 22.16725707 134.54091001 C22.16797066 132.18509199 22.17011077 129.82927966 22.17275429 127.47346306 C22.18198702 119.24036164 22.1860916 111.00727635 22.18530273 102.77416992 C22.18470186 95.12212212 22.19526093 87.47014479 22.2110464 79.81811482 C22.2241535 73.22759471 22.22948533 66.63709755 22.22884732 60.04656452 C22.22859336 56.11942779 22.23138869 52.19235382 22.24202538 48.26523018 C22.25176045 44.57072851 22.25174879 40.87634897 22.24450874 37.1818428 C22.24297762 35.19428663 22.25127085 33.20673032 22.25994873 31.2191925 C22.57879704 19.11393062 22.57879704 19.11393062 17.89453125 8.453125 C14.15166011 6.57411277 10.82443957 6.10491171 6.6875 5.75 C5.94693359 5.67265625 5.20636719 5.5953125 4.44335938 5.515625 C2.63041732 5.32848259 0.81535046 5.16212296 -1 5 C-0.67 3.35 -0.34 1.7 0 0 Z " fill="#F6F5F5" transform="translate(118,86)"/>
<path d="M0 0 C1.65 0.33 3.3 0.66 5 1 C5 1.66 5 2.32 5 3 C5.81210937 3.15275391 5.81210937 3.15275391 6.640625 3.30859375 C9.60596581 4.17757607 12.05524946 5.55472291 14.75 7.0625 C15.73484375 7.61035156 16.7196875 8.15820312 17.734375 8.72265625 C18.85585938 9.35494141 18.85585938 9.35494141 20 10 C20 10.66 20 11.32 20 12 C20.87265503 12.1844165 20.87265503 12.1844165 21.76293945 12.37255859 C24.03941316 13.01105444 25.7545981 13.85215002 27.79296875 15.0390625 C28.50114746 15.45115967 29.20932617 15.86325684 29.93896484 16.2878418 C30.68098145 16.729104 31.42299805 17.17036621 32.1875 17.625 C32.95271973 18.07721924 33.71793945 18.52943848 34.50634766 18.99536133 C39.2268931 21.82577988 43.61877362 24.82865204 47.87109375 28.33203125 C52.53710893 31.98778993 57.69276034 35.34638017 63 38 C63 38.66 63 39.32 63 40 C63.556875 40.103125 64.11375 40.20625 64.6875 40.3125 C67.4769101 41.14178408 69.6139064 42.34299056 72 44 C72 44.66 72 45.32 72 46 C72.72574219 46.25652344 73.45148438 46.51304687 74.19921875 46.77734375 C86.53466679 52.16227435 95.43250782 64.18859137 101 76 C101.34160156 76.68191406 101.68320312 77.36382812 102.03515625 78.06640625 C106.43924514 88.53379891 105.04237045 102.59904776 101.34765625 113.0078125 C99.10410543 117.98914562 96.45560366 122.75284181 93 127 C92.34 127 91.68 127 91 127 C91 127.66 91 128.32 91 129 C85.52380952 134 85.52380952 134 83 134 C83 134.66 83 135.32 83 136 C82.01 136 81.02 136 80 136 C80 136.66 80 137.32 80 138 C66.77471172 145.59287139 53.58568256 147.72441781 38.625 147.5 C37.54431747 147.49219009 37.54431747 147.49219009 36.44180298 147.48422241 C20.69188667 147.35087247 7.39014337 144.76530825 -7 138 C-7 137.34 -7 136.68 -7 136 C-7.639375 135.690625 -8.27875 135.38125 -8.9375 135.0625 C-11 134 -11 134 -12 133 C-12.12781392 131.45159526 -12.18831656 129.89756146 -12.22119141 128.34423828 C-12.24436432 127.35295929 -12.26753723 126.3616803 -12.29141235 125.34036255 C-12.3112619 124.26124603 -12.33111145 123.18212952 -12.3515625 122.0703125 C-12.38629166 120.41840408 -12.38629166 120.41840408 -12.42172241 118.73312378 C-12.46944843 116.39781447 -12.51467168 114.0624529 -12.55761719 111.72705078 C-12.62458353 108.14726298 -12.70237287 104.56782409 -12.78125 100.98828125 C-12.82617607 98.72397124 -12.87046789 96.45964854 -12.9140625 94.1953125 C-12.93796051 93.12024445 -12.96185852 92.04517639 -12.98648071 90.93753052 C-13.0033493 89.9399472 -13.0202179 88.94236389 -13.03759766 87.91455078 C-13.05456696 87.03598419 -13.07153625 86.1574176 -13.08901978 85.25222778 C-13 83 -13 83 -12 80 C-9.36194072 80.35104056 -8.28637409 80.62862297 -6.63134766 82.77490234 C-6.22964355 83.53754395 -5.82793945 84.30018555 -5.4140625 85.0859375 C-4.96135986 85.92906494 -4.50865723 86.77219238 -4.04223633 87.64086914 C-3.57454834 88.54313232 -3.10686035 89.44539551 -2.625 90.375 C-2.13604248 91.28950928 -1.64708496 92.20401855 -1.14331055 93.14624023 C0.850959 96.88097527 2.8088964 100.63424543 4.76953125 104.38671875 C12.25087828 118.50441218 21.91423944 131.26048606 37.1875 137.25 C46.58300358 139.09829579 55.48213574 138.67863304 64 134 C68.85445415 130.06974053 70.61863294 126.07551484 72 120 C72.26104376 117.18011631 72.28056979 114.39275348 72.25 111.5625 C72.25773437 110.85029297 72.26546875 110.13808594 72.2734375 109.40429688 C72.2459645 101.84235451 70.72168495 95.68480574 66.875 89.125 C64 84.18660287 64 84.18660287 64 82 C63.34 82 62.68 82 62 82 C60.34375 80.28515625 60.34375 80.28515625 58.5 78.0625 C56.11073001 75.07954821 56.11073001 75.07954821 53 73 C53 72.34 53 71.68 53 71 C51.948125 70.62875 51.948125 70.62875 50.875 70.25 C47.60485452 68.82819762 44.858878 67.12753712 42 65 C42 64.34 42 63.68 42 63 C41.34 62.773125 40.68 62.54625 40 62.3125 C36.11341372 60.6121185 32.36320183 58.60376916 29 56 C29 55.34 29 54.68 29 54 C28.40904541 53.88068115 27.81809082 53.7613623 27.20922852 53.63842773 C24.93048952 52.97991271 23.55308916 52.17982084 21.65234375 50.78515625 C21.04712891 50.34623047 20.44191406 49.90730469 19.81835938 49.45507812 C19.19767578 48.99552734 18.57699219 48.53597656 17.9375 48.0625 C16.69681673 47.15727495 15.45593823 46.25231743 14.21484375 45.34765625 C13.15394531 44.57292969 12.09304688 43.79820312 11 43 C10.01 42.34 9.02 41.68 8 41 C8 40.34 8 39.68 8 39 C7.34 39 6.68 39 6 39 C6 38.34 6 37.68 6 37 C5.43539063 36.79761719 4.87078125 36.59523438 4.2890625 36.38671875 C1.13668942 34.47700468 -0.59927516 31.80719655 -2.625 28.8125 C-3.01945312 28.26013672 -3.41390625 27.70777344 -3.8203125 27.13867188 C-6.4825559 23.26672666 -8.39825305 19.74135099 -9 15 C-7.95635508 12.06424514 -6.36892074 9.63049889 -4.625 7.0625 C-4.18671875 6.37865234 -3.7484375 5.69480469 -3.296875 4.99023438 C-2.21820019 3.31359853 -1.11176998 1.65487601 0 0 Z " fill="#F3F2F3" transform="translate(290,273)"/>
<path d="M0 0 C4.40114397 0.50298788 6.71195019 2.08772731 10 5 C8.58640226 9.04303602 6.63594388 12.08791053 4.0625 15.5 C2.00657121 18.23611457 0.07302627 20.87251049 -1.62890625 23.84375 C-2.30759766 24.91109375 -2.30759766 24.91109375 -3 26 C-3.66 26 -4.32 26 -5 26 C-5.37125 27.0828125 -5.37125 27.0828125 -5.75 28.1875 C-7.11136803 31.25057808 -8.88983277 33.41334339 -11 36 C-11.33 36.99 -11.66 37.98 -12 39 C-12.66 39 -13.32 39 -14 39 C-14.2165625 39.65355469 -14.433125 40.30710938 -14.65625 40.98046875 C-16.48496438 45.08976009 -18.94713087 48.62172409 -21.5 52.3125 C-22.24830078 53.42334961 -22.24830078 53.42334961 -23.01171875 54.55664062 C-23.49253906 55.25595703 -23.97335937 55.95527344 -24.46875 56.67578125 C-24.90638672 57.31427002 -25.34402344 57.95275879 -25.79492188 58.6105957 C-26.39143555 59.29835083 -26.39143555 59.29835083 -27 60 C-27.66 60 -28.32 60 -29 60 C-29.28875 60.7425 -29.5775 61.485 -29.875 62.25 C-30.82302644 64.56739797 -31.84845911 66.77917115 -33 69 C-33.66 69 -34.32 69 -35 69 C-35.33 70.32 -35.66 71.64 -36 73 C-36.66 73 -37.32 73 -38 73 C-38.26876953 73.72920654 -38.53753906 74.45841309 -38.81445312 75.2097168 C-40.76457208 79.799484 -43.68357754 83.71616321 -46.5 87.8125 C-47.09425781 88.69615234 -47.68851563 89.57980469 -48.30078125 90.49023438 C-48.87183594 91.32490234 -49.44289063 92.15957031 -50.03125 93.01953125 C-50.81338867 94.16578979 -50.81338867 94.16578979 -51.61132812 95.33520508 C-52.06958984 95.8845874 -52.52785156 96.43396973 -53 97 C-53.66 97 -54.32 97 -55 97 C-55.22171875 97.6703125 -55.4434375 98.340625 -55.671875 99.03125 C-57.4031505 102.90115994 -59.75876539 106.0846753 -62.25 109.5 C-67.88186219 117.31776469 -73.2267237 125.30088693 -78.45410156 133.39453125 C-79.01838867 134.255625 -79.58267578 135.11671875 -80.1640625 136.00390625 C-80.66373535 136.77549072 -81.1634082 137.5470752 -81.67822266 138.34204102 C-82.11440918 138.88916748 -82.5505957 139.43629395 -83 140 C-83.66 140 -84.32 140 -85 140 C-85.22558594 140.67675781 -85.45117188 141.35351562 -85.68359375 142.05078125 C-87.3610002 145.808769 -89.62533832 148.88854141 -92.0625 152.1875 C-95.28371363 156.43524864 -95.28371363 156.43524864 -98 161 C-98.66 161 -99.32 161 -100 161 C-100 161.99 -100 162.98 -100 164 C-100.66 164 -101.32 164 -102 164 C-102.99 166.97 -102.99 166.97 -104 170 C-104.66 170 -105.32 170 -106 170 C-106.33 171.32 -106.66 172.64 -107 174 C-107.66 174 -108.32 174 -109 174 C-109 174.99 -109 175.98 -109 177 C-109.66 177 -110.32 177 -111 177 C-111.2165625 177.65355469 -111.433125 178.30710937 -111.65625 178.98046875 C-113.48496438 183.08976009 -115.94713087 186.62172409 -118.5 190.3125 C-118.99886719 191.05306641 -119.49773437 191.79363281 -120.01171875 192.55664062 C-120.49253906 193.25595703 -120.97335938 193.95527344 -121.46875 194.67578125 C-121.90638672 195.31427002 -122.34402344 195.95275879 -122.79492188 196.6105957 C-123.19259766 197.06909912 -123.59027344 197.52760254 -124 198 C-124.66 198 -125.32 198 -126 198 C-126.3403125 198.99 -126.3403125 198.99 -126.6875 200 C-128.3878815 203.88658628 -130.39623084 207.63679817 -133 211 C-133.66 211 -134.32 211 -135 211 C-135.26876953 211.72920654 -135.53753906 212.45841309 -135.81445312 213.2097168 C-137.76457208 217.799484 -140.68357754 221.71616321 -143.5 225.8125 C-144.09425781 226.69615234 -144.68851563 227.57980469 -145.30078125 228.49023438 C-145.87183594 229.32490234 -146.44289062 230.15957031 -147.03125 231.01953125 C-147.55267578 231.78370361 -148.07410156 232.54787598 -148.61132812 233.33520508 C-149.2987207 234.15927856 -149.2987207 234.15927856 -150 235 C-150.66 235 -151.32 235 -152 235 C-152.21527344 235.66 -152.43054688 236.32 -152.65234375 237 C-154.46971497 241.04562637 -156.96693903 244.4184316 -159.5625 248 C-160.64244373 249.50874491 -161.72186487 251.01786401 -162.80078125 252.52734375 C-163.33783691 253.27612793 -163.87489258 254.02491211 -164.42822266 254.79638672 C-166.73438685 258.0296017 -168.99589286 261.29286703 -171.25 264.5625 C-171.97703125 265.61566406 -172.7040625 266.66882813 -173.453125 267.75390625 C-173.96359375 268.49511719 -174.4740625 269.23632812 -175 270 C-178.81583379 269.34820749 -181.02881405 268.53101025 -184 266 C-183.46968862 261.4923533 -181.74778884 258.58045212 -179 255 C-178.34 255 -177.68 255 -177 255 C-176.79503906 254.35417969 -176.59007812 253.70835937 -176.37890625 253.04296875 C-174.43022009 248.74261034 -171.70193211 245.12450639 -168.9375 241.3125 C-167.84133359 239.78856133 -166.74622902 238.26385815 -165.65234375 236.73828125 C-165.16757568 236.06837158 -164.68280762 235.39846191 -164.18334961 234.70825195 C-162.94267284 233.00342973 -162.94267284 233.00342973 -162 231 C-161.34 231 -160.68 231 -160 231 C-159.34 229.02 -158.68 227.04 -158 225 C-157.34 225 -156.68 225 -156 225 C-155.690625 224.21625 -155.38125 223.4325 -155.0625 222.625 C-154 220 -154 220 -153 218 C-152.34 218 -151.68 218 -151 218 C-150.73501709 217.27167969 -150.47003418 216.54335938 -150.19702148 215.79296875 C-148.99740202 212.99393822 -147.6142812 210.78623492 -145.84765625 208.3125 C-144.93016602 207.01699219 -144.93016602 207.01699219 -143.99414062 205.6953125 C-143.35669922 204.80585938 -142.71925781 203.91640625 -142.0625 203 C-140.80187018 201.23024502 -139.54270747 199.45944389 -138.28515625 197.6875 C-137.72707275 196.90761719 -137.16898926 196.12773437 -136.59399414 195.32421875 C-134.92881365 192.96773219 -134.92881365 192.96773219 -133.41967773 190.20703125 C-132.95118408 189.47871094 -132.48269043 188.75039063 -132 188 C-131.34 188 -130.68 188 -130 188 C-129.78601563 187.34128906 -129.57203125 186.68257812 -129.3515625 186.00390625 C-127.51963563 181.93236937 -124.99183974 178.53998116 -122.375 174.9375 C-117.9156775 168.73296267 -113.62583499 162.47520478 -109.5234375 156.02734375 C-109.02070313 155.35832031 -108.51796875 154.68929687 -108 154 C-107.34 154 -106.68 154 -106 154 C-106 153.01 -106 152.02 -106 151 C-105.34 151 -104.68 151 -104 151 C-103.01 148.03 -103.01 148.03 -102 145 C-101.34 145 -100.68 145 -100 145 C-99.72526855 144.42491699 -99.45053711 143.84983398 -99.16748047 143.25732422 C-98.00907282 141.01754231 -96.72579119 138.97526317 -95.3203125 136.8828125 C-94.80339844 136.11066406 -94.28648437 135.33851563 -93.75390625 134.54296875 C-93.21636719 133.74503906 -92.67882812 132.94710937 -92.125 132.125 C-91.59519531 131.33480469 -91.06539063 130.54460937 -90.51953125 129.73046875 C-89.48739283 128.19122511 -88.45265077 126.65372345 -87.41503906 125.11816406 C-86.52578882 123.78705035 -85.65049123 122.44639852 -84.79589844 121.09277344 C-83.91163268 119.69712508 -82.96276974 118.34269681 -82 117 C-81.34 117 -80.68 117 -80 117 C-79.71125 116.2575 -79.4225 115.515 -79.125 114.75 C-78.17697356 112.43260203 -77.15154089 110.22082885 -76 108 C-75.34 108 -74.68 108 -74 108 C-73.58790283 107.13737549 -73.58790283 107.13737549 -73.16748047 106.25732422 C-72.00907282 104.01754231 -70.72579119 101.97526317 -69.3203125 99.8828125 C-68.80339844 99.11066406 -68.28648437 98.33851563 -67.75390625 97.54296875 C-66.94759766 96.34607422 -66.94759766 96.34607422 -66.125 95.125 C-65.59519531 94.33480469 -65.06539063 93.54460937 -64.51953125 92.73046875 C-63.48739283 91.19122511 -62.45265077 89.65372345 -61.41503906 88.11816406 C-60.52578882 86.78705035 -59.65049123 85.44639852 -58.79589844 84.09277344 C-57.91163268 82.69712508 -56.96276974 81.34269681 -56 80 C-55.34 80 -54.68 80 -54 80 C-53.34 78.02 -52.68 76.04 -52 74 C-51.34 74 -50.68 74 -50 74 C-49.77183594 73.319375 -49.54367187 72.63875 -49.30859375 71.9375 C-47.66428172 68.24638763 -45.45863716 65.2363411 -43.0625 62 C-42.17658352 60.79298715 -41.29243152 59.58467698 -40.41015625 58.375 C-39.99266113 57.80394531 -39.57516602 57.23289063 -39.14501953 56.64453125 C-38.11861235 55.17035667 -37.2049319 53.61918889 -36.30859375 52.0625 C-35.87675781 51.381875 -35.44492187 50.70125 -35 50 C-34.34 50 -33.68 50 -33 50 C-32.67902344 49.01193359 -32.67902344 49.01193359 -32.3515625 48.00390625 C-30.51963563 43.93236937 -27.99183974 40.53998116 -25.375 36.9375 C-20.9156775 30.73296267 -16.62583499 24.47520478 -12.5234375 18.02734375 C-12.02070313 17.35832031 -11.51796875 16.68929687 -11 16 C-10.34 16 -9.68 16 -9 16 C-9 15.01 -9 14.02 -9 13 C-8.34 13 -7.68 13 -7 13 C-6.731875 12.0925 -6.46375 11.185 -6.1875 10.25 C-5.09868368 7.27008166 -4.13608899 5.31409641 -2 3 C-1.34 3 -0.68 3 0 3 C0 2.01 0 1.02 0 0 Z " fill="#E4E3E3" transform="translate(352,127)"/>
<path d="M0 0 C3.97511056 1.60263288 5.61865082 2.84269887 8.20703125 6.29296875 C8.89832856 9.96134404 8.78908671 13.55979518 8.6953125 17.28125 C8.68823776 18.33958542 8.68116302 19.39792084 8.6738739 20.48832703 C8.64593344 23.86143312 8.58319246 27.23286621 8.51953125 30.60546875 C8.49444807 32.89515828 8.47163494 35.18487389 8.45117188 37.47460938 C8.39610806 43.0812979 8.31248455 48.68701379 8.20703125 54.29296875 C6.55703125 54.29296875 4.90703125 54.29296875 3.20703125 54.29296875 C2.79453125 53.22820312 2.38203125 52.1634375 1.95703125 51.06640625 C-2.89801208 38.77142559 -8.32815476 27.06375183 -16.76171875 16.74609375 C-17.79296875 15.29296875 -17.79296875 15.29296875 -17.79296875 13.29296875 C-18.45296875 13.29296875 -19.11296875 13.29296875 -19.79296875 13.29296875 C-19.79296875 12.63296875 -19.79296875 11.97296875 -19.79296875 11.29296875 C-20.46714844 11.03773438 -21.14132812 10.7825 -21.8359375 10.51953125 C-25.34429631 9.0642807 -28.71975427 7.3834904 -32.10546875 5.66796875 C-32.75064453 5.343125 -33.39582031 5.01828125 -34.06054688 4.68359375 C-35.63894416 3.88854919 -37.21608569 3.09101241 -38.79296875 2.29296875 C-38.79296875 1.63296875 -38.79296875 0.97296875 -38.79296875 0.29296875 C-39.72109375 0.07640625 -39.72109375 0.07640625 -40.66796875 -0.14453125 C-42.79296875 -0.70703125 -42.79296875 -0.70703125 -44.79296875 -1.70703125 C-44.79296875 -2.36703125 -44.79296875 -3.02703125 -44.79296875 -3.70703125 C-33.4107662 -9.39813252 -11.72632548 -2.90934836 0 0 Z " fill="#E7E6E7" transform="translate(377.79296875,231.70703125)"/>
<path d="M0 0 C0 1.65 0 3.3 0 5 C-27.39 5 -54.78 5 -83 5 C-83 4.67 -83 4.34 -83 4 C-74.29404886 3.14118098 -65.65901972 2.82801969 -56.9140625 2.75390625 C-54.92697051 2.72940246 -52.93987859 2.70488743 -50.95279503 2.67970943 C-46.11135085 2.61947681 -41.26983301 2.56798396 -36.42822266 2.52319336 C-33.6896392 2.49749888 -30.95120161 2.46668578 -28.21273804 2.43040466 C-25.64856043 2.39674972 -23.08426776 2.37075606 -20.51992798 2.35340881 C-18.77683853 2.32844582 -18.77683853 2.32844582 -16.99853516 2.30297852 C-15.98215973 2.29267105 -14.9657843 2.28236359 -13.91860962 2.27174377 C-8.99957994 1.81374635 -5.02888241 -0.29581661 0 0 Z " fill="#8E8C8C" transform="translate(200,268)"/>
<path d="M0 0 C4.75 0.75 4.75 0.75 7 3 C5.8553125 2.9690625 5.8553125 2.9690625 4.6875 2.9375 C1.89814214 2.87057159 1.89814214 2.87057159 -1 4 C-2.37334617 6.28891028 -3.15250816 8.45752447 -4 11 C-4.66 11 -5.32 11 -6 11 C-4.87548273 8.0280615 -3.77706209 5.66559313 -2 3 C-1.34 3 -0.68 3 0 3 C0 2.01 0 1.02 0 0 Z " fill="#8B898A" transform="translate(352,127)"/>
<path d="M0 0 C1.65 0.33 3.3 0.66 5 1 C5 1.66 5 2.32 5 3 C5.99 3.33 6.98 3.66 8 4 C6.68 4 5.36 4 4 4 C4 3.34 4 2.68 4 2 C2.02 2.99 0.04 3.98 -2 5 C-1.34 3.35 -0.68 1.7 0 0 Z " fill="#949190" transform="translate(290,273)"/>
<path d="" fill="#000000" transform="translate(0,0)"/>
<path d="" fill="#000000" transform="translate(0,0)"/>
<path d="" fill="#000000" transform="translate(0,0)"/>
<path d="" fill="#000000" transform="translate(0,0)"/>
<path d="" fill="#000000" transform="translate(0,0)"/>
<path d="" fill="#000000" transform="translate(0,0)"/>
<path d="" fill="#000000" transform="translate(0,0)"/>
<path d="" fill="#000000" transform="translate(0,0)"/>
<path d="" fill="#000000" transform="translate(0,0)"/>
<path d="" fill="#000000" transform="translate(0,0)"/>
<path d="" fill="#000000" transform="translate(0,0)"/>
<path d="" fill="#000000" transform="translate(0,0)"/>
<path d="" fill="#000000" transform="translate(0,0)"/>
<path d="" fill="#000000" transform="translate(0,0)"/>
<path d="" fill="#000000" transform="translate(0,0)"/>
<path d="" fill="#000000" transform="translate(0,0)"/>
<path d="" fill="#000000" transform="translate(0,0)"/>
<path d="" fill="#000000" transform="translate(0,0)"/>
<path d="" fill="#000000" transform="translate(0,0)"/>
<path d="" fill="#000000" transform="translate(0,0)"/>
<path d="" fill="#000000" transform="translate(0,0)"/>
<path d="" fill="#000000" transform="translate(0,0)"/>
<path d="" fill="#000000" transform="translate(0,0)"/>
<path d="" fill="#000000" transform="translate(0,0)"/>
<path d="" fill="#000000" transform="translate(0,0)"/>
<path d="" fill="#000000" transform="translate(0,0)"/>
<path d="" fill="#000000" transform="translate(0,0)"/>
<path d="" fill="#000000" transform="translate(0,0)"/>
<path d="" fill="#000000" transform="translate(0,0)"/>
<path d="" fill="#000000" transform="translate(0,0)"/>
<path d="" fill="#000000" transform="translate(0,0)"/>
<path d="" fill="#000000" transform="translate(0,0)"/>
<path d="" fill="#000000" transform="translate(0,0)"/>
<path d="" fill="#000000" transform="translate(0,0)"/>
<path d="" fill="#000000" transform="translate(0,0)"/>
<path d="" fill="#000000" transform="translate(0,0)"/>
<path d="" fill="#000000" transform="translate(0,0)"/>
<path d="" fill="#000000" transform="translate(0,0)"/>
<path d="" fill="#000000" transform="translate(0,0)"/>
<path d="" fill="#000000" transform="translate(0,0)"/>
<path d="" fill="#000000" transform="translate(0,0)"/>
<path d="" fill="#000000" transform="translate(0,0)"/>
<path d="" fill="#00FF00" transform="translate(0,0)"/>
<path d="" fill="#000000" transform="translate(0,0)"/>
<path d="" fill="#000000" transform="translate(0,0)"/>
<path d="" fill="#000000" transform="translate(0,0)"/>
<path d="" fill="#000000" transform="translate(0,0)"/>
<path d="" fill="#000000" transform="translate(0,0)"/>
<path d="" fill="#000000" transform="translate(0,0)"/>
<path d="" fill="#000000" transform="translate(0,0)"/>
<path d="" fill="#000000" transform="translate(0,0)"/>
<path d="" fill="#000000" transform="translate(0,0)"/>
<path d="" fill="#000000" transform="translate(0,0)"/>
<path d="" fill="#000000" transform="translate(0,0)"/>
<path d="" fill="#000000" transform="translate(0,0)"/>
<path d="" fill="#000000" transform="translate(0,0)"/>
<path d="" fill="#000000" transform="translate(0,0)"/>
<path d="" fill="#000000" transform="translate(0,0)"/>
<path d="" fill="#000000" transform="translate(0,0)"/>
<path d="" fill="#000000" transform="translate(0,0)"/>
<path d="" fill="#000000" transform="translate(0,0)"/>
<path d="" fill="#000000" transform="translate(0,0)"/>
<path d="" fill="#000000" transform="translate(0,0)"/>
<path d="" fill="#000000" transform="translate(0,0)"/>
<path d="" fill="#000000" transform="translate(0,0)"/>
</svg>
